<svg width="32" height="32" viewBox="0 0 32 32" fill="none" xmlns="http://www.w3.org/2000/svg">
<g clip-path="url(#clip0_210_6)">
<path d="M16 1C7.71573 1 1 7.71573 1 16C1 24.2843 7.71573 31 16 31C24.2843 31 31 24.2843 31 16C31 7.71573 24.2843 1 16 1Z" fill="white"/>
<path fill-rule="evenodd" clip-rule="evenodd" d="M21.6783 18.697C21.2632 19.108 20.5946 19.1084 20.1791 18.6979L15.9998 14.5688L11.8205 18.6979C11.405 19.1084 10.7364 19.108 10.3213 18.697C9.90006 18.2799 9.90006 17.5992 10.3213 17.1821L15.9372 11.6215C15.9719 11.5872 16.0277 11.5872 16.0624 11.6215L21.6783 17.1821C22.0996 17.5992 22.0996 18.2799 21.6783 18.697Z" fill="#11A0A8"/>
<path d="M16 1C7.71573 1 1 7.71573 1 16C1 24.2843 7.71573 31 16 31C24.2843 31 31 24.2843 31 16C31 7.71573 24.2843 1 16 1Z" stroke="#F5F7F8" stroke-width="2"/>
</g>
<defs>
<clipPath id="clip0_210_6">
<rect width="32" height="32" fill="white" transform="matrix(0 -1 1 0 0 32)"/>
</clipPath>
</defs>
</svg>
