<svg width="32" height="32" viewBox="0 0 32 32" fill="none" xmlns="http://www.w3.org/2000/svg">
<g clip-path="url(#clip0_210_2)">
<path d="M16.001 31.0001C24.2852 31.0001 31.001 24.2844 31.001 16.0001C31.001 7.71585 24.2852 1.00012 16.001 1.00012C7.71671 1.00012 1.00098 7.71585 1.00098 16.0001C1.00098 24.2844 7.71671 31.0001 16.001 31.0001Z" fill="white"/>
<path fill-rule="evenodd" clip-rule="evenodd" d="M10.3227 13.3031C10.7378 12.8921 11.4064 12.8917 11.8219 13.3022L16.0012 17.4313L20.1805 13.3022C20.596 12.8917 21.2646 12.8921 21.6797 13.3031C22.1009 13.7202 22.1009 14.4009 21.6797 14.818L16.0638 20.3786C16.0291 20.4129 15.9733 20.4129 15.9386 20.3786L10.3227 14.818C9.90137 14.4009 9.90137 13.7202 10.3227 13.3031Z" fill="#11A0A8"/>
<path d="M16.001 31.0001C24.2852 31.0001 31.001 24.2844 31.001 16.0001C31.001 7.71585 24.2852 1.00012 16.001 1.00012C7.71671 1.00012 1.00098 7.71585 1.00098 16.0001C1.00098 24.2844 7.71671 31.0001 16.001 31.0001Z" stroke="#F5F7F8" stroke-width="2"/>
</g>
<defs>
<clipPath id="clip0_210_2">
<rect width="32" height="32" fill="white" transform="matrix(0 1 -1 0 32.001 0.00012207)"/>
</clipPath>
</defs>
</svg>
